<?xml version="1.0" encoding="UTF-8"?><svg id="uuid-90e696cf-2ce4-43a8-9889-0b8e85a5e731" xmlns="http://www.w3.org/2000/svg" viewBox="0 0 236.66 247.89"><defs><style>.uuid-bb59be0d-5231-4595-a4e0-f686061cb493{fill:#fff;}</style></defs><path class="uuid-bb59be0d-5231-4595-a4e0-f686061cb493" d="M178.33,119.89v108c0,6.62-5.38,12-12,12H70.33c-6.62,0-12-5.38-12-12V119.89h120m8-8H50.33v116c0,11.05,8.95,20,20,20h96c11.05,0,20-8.95,20-20V111.89h0Z"/><path class="uuid-bb59be0d-5231-4595-a4e0-f686061cb493" d="M118.33,8c3.22,0,6.23,1.24,8.49,3.49l99.72,99.72c.16,.16,.32,.32,.46,.47-.21,0-.43,.01-.66,.01H10.33c-.23,0-.45,0-.66-.01,.14-.15,.29-.31,.46-.47L109.84,11.49c2.25-2.25,5.26-3.49,8.49-3.49m0-8c-5.13,0-10.25,1.94-14.14,5.83L4.47,105.55c-7.78,7.78-5.14,14.14,5.86,14.14H226.33c11,0,13.64-6.36,5.86-14.14L132.47,5.83c-3.89-3.89-9.02-5.83-14.14-5.83h0Z"/></svg>