<?xml version="1.0" encoding="UTF-8"?><svg id="uuid-9ad8a04c-d1a9-42f8-84f1-650e4950d4d9" xmlns="http://www.w3.org/2000/svg" viewBox="0 0 196.04 256"><defs><style>.uuid-ef38b711-df59-45a4-b148-48483c0ef121{fill:#fff;}</style></defs><path class="uuid-ef38b711-df59-45a4-b148-48483c0ef121" d="M98.56,8c36.62,0,66.42,32.27,66.42,71.94v77.62l.84,1.69,17.27,34.55H12.94l17.27-34.55,.84-1.69V79.94C31.06,40.27,60.86,8,97.48,8h1.08m0-8h-1.08C56.38,0,23.06,35.79,23.06,79.94v75.73L0,201.8H196.04l-23.06-46.13V79.94C172.97,35.79,139.66,0,98.56,0h0Z"/><path class="uuid-ef38b711-df59-45a4-b148-48483c0ef121" d="M147.68,223.64v11.42c0,7.13-5.8,12.94-12.94,12.94H61.3c-7.13,0-12.94-5.8-12.94-12.94v-11.42h99.32m8-8H40.36v19.42c0,11.56,9.37,20.94,20.94,20.94h73.44c11.56,0,20.94-9.37,20.94-20.94v-19.42h0Z"/></svg>