<?xml version="1.0" encoding="UTF-8"?><svg id="uuid-f4b2f17d-9f1d-46dc-8944-0fc44c3f58d7" xmlns="http://www.w3.org/2000/svg" viewBox="0 0 212 256"><defs><style>.uuid-aa0db35f-3fbb-416e-b3cb-40afcd17c4f5{fill:#fff;}</style></defs><path class="uuid-aa0db35f-3fbb-416e-b3cb-40afcd17c4f5" d="M192,8c6.62,0,12,5.38,12,12V108c0,6.62-5.38,12-12,12H40V8H192m0-8H32V128H192c11.05,0,20-8.95,20-20V20c0-11.05-8.95-20-20-20h0Z"/><path class="uuid-aa0db35f-3fbb-416e-b3cb-40afcd17c4f5" d="M32,8V236.02c0,6.61-5.37,11.98-12.02,11.98s-11.98-5.37-11.98-11.98V8h24M40,0H0V236.02c0,11.03,8.95,19.98,19.98,19.98h.04c11.03,0,19.98-8.95,19.98-19.98V0h0Z"/></svg>