<?xml version="1.0" encoding="UTF-8"?><svg id="uuid-719c0c69-8bad-4c48-9097-c468fb35fb63" xmlns="http://www.w3.org/2000/svg" viewBox="0 0 256 256"><defs><style>.uuid-ff24b15f-4851-419c-9344-ce57b0a1153e{fill:#fff;}.uuid-2b834725-bf8c-4fa1-81c9-638d3808c122{fill:none;stroke:#fff;stroke-miterlimit:10;stroke-width:8px;}</style></defs><path class="uuid-ff24b15f-4851-419c-9344-ce57b0a1153e" d="M128,46c45.21,0,82,36.79,82,82s-36.79,82-82,82S46,173.21,46,128,82.79,46,128,46m0-8h0c-49.71,0-90,40.29-90,90h0c0,49.71,40.29,90,90,90h0c49.71,0,90-40.29,90-90h0c0-49.71-40.29-90-90-90h0Z"/><path class="uuid-2b834725-bf8c-4fa1-81c9-638d3808c122" d="M165.5,49V20.9c0-9.34-8.95-16.9-20-16.9h-35c-11.05,0-20,7.57-20,16.9v28.1"/><path class="uuid-2b834725-bf8c-4fa1-81c9-638d3808c122" d="M90.5,207v28.1c0,9.34,8.95,16.9,20,16.9h35c11.05,0,20-7.57,20-16.9v-28.1"/><path class="uuid-2b834725-bf8c-4fa1-81c9-638d3808c122" d="M49,90.5H20.9c-9.34,0-16.9,8.95-16.9,20v35c0,11.05,7.57,20,16.9,20h28.1"/><path class="uuid-2b834725-bf8c-4fa1-81c9-638d3808c122" d="M207,165.5h28.1c9.34,0,16.9-8.95,16.9-20v-35c0-11.05-7.57-20-16.9-20h-28.1"/><path class="uuid-2b834725-bf8c-4fa1-81c9-638d3808c122" d="M165.5,218.53l19.87,19.87c6.6,6.6,18.28,5.62,26.09-2.19l24.75-24.75c7.81-7.81,8.79-19.49,2.19-26.09l-19.87-19.87"/><path class="uuid-2b834725-bf8c-4fa1-81c9-638d3808c122" d="M90.5,37.47l-19.87-19.87c-6.6-6.6-18.28-5.62-26.09,2.19l-24.75,24.75c-7.81,7.81-8.79,19.49-2.19,26.09l19.87,19.87"/><path class="uuid-2b834725-bf8c-4fa1-81c9-638d3808c122" d="M218.53,90.5l19.87-19.87c6.6-6.6,5.62-18.28-2.19-26.09l-24.75-24.75c-7.81-7.81-19.49-8.79-26.09-2.19l-19.87,19.87"/><path class="uuid-2b834725-bf8c-4fa1-81c9-638d3808c122" d="M37.47,165.5l-19.87,19.87c-6.6,6.6-5.62,18.28,2.19,26.09l24.75,24.75c7.81,7.81,19.49,8.79,26.09,2.19l19.87-19.87"/><path class="uuid-ff24b15f-4851-419c-9344-ce57b0a1153e" d="M128,76c28.67,0,52,23.33,52,52s-23.33,52-52,52-52-23.33-52-52,23.33-52,52-52m0-8h0c-33.14,0-60,26.86-60,60h0c0,33.14,26.86,60,60,60h0c33.14,0,60-26.86,60-60h0c0-33.14-26.86-60-60-60h0Z"/></svg>