<?xml version="1.0" encoding="UTF-8"?><svg id="uuid-88baa01d-8553-43a2-b9f8-6a5b97ca7f3e" xmlns="http://www.w3.org/2000/svg" viewBox="0 0 256 256"><defs><style>.uuid-e34269e0-1c66-4242-b484-f691fe06ce31{fill:#fff;}</style></defs><path class="uuid-e34269e0-1c66-4242-b484-f691fe06ce31" d="M50,164c6.62,0,12,5.38,12,12v60c0,6.62-5.38,12-12,12H20c-6.62,0-12-5.38-12-12v-60c0-6.62,5.38-12,12-12h30m0-8H20c-11.05,0-20,8.95-20,20v60c0,11.05,8.95,20,20,20h30c11.05,0,20-8.95,20-20v-60c0-11.05-8.95-20-20-20h0Z"/><path class="uuid-e34269e0-1c66-4242-b484-f691fe06ce31" d="M143,86c6.62,0,12,5.38,12,12V236c0,6.62-5.38,12-12,12h-30c-6.62,0-12-5.38-12-12V98c0-6.62,5.38-12,12-12h30m0-8h-30c-11.05,0-20,8.95-20,20V236c0,11.05,8.95,20,20,20h30c11.05,0,20-8.95,20-20V98c0-11.05-8.95-20-20-20h0Z"/><path class="uuid-e34269e0-1c66-4242-b484-f691fe06ce31" d="M236,8c6.62,0,12,5.38,12,12V236c0,6.62-5.38,12-12,12h-30c-6.62,0-12-5.38-12-12V20c0-6.62,5.38-12,12-12h30m0-8h-30c-11.05,0-20,8.95-20,20V236c0,11.05,8.95,20,20,20h30c11.05,0,20-8.95,20-20V20c0-11.05-8.95-20-20-20h0Z"/></svg>