<?xml version="1.0" encoding="UTF-8"?><svg id="uuid-39709fde-556a-4fe2-859f-2244e32c63a4" xmlns="http://www.w3.org/2000/svg" viewBox="0 0 256 256"><defs><style>.uuid-3c5bd963-e8f5-44d7-bc2e-6b3a737d8fc2{fill:#68a353;stroke:#68a353;stroke-miterlimit:10;stroke-width:3px;}</style></defs><path class="uuid-3c5bd963-e8f5-44d7-bc2e-6b3a737d8fc2" d="M104.92,69.28c0,12.81-1.31,23.5-3.94,32.08-2.63,8.58-6.21,15.53-10.74,20.84-4.53,5.32-10.02,9.12-16.46,11.42-6.44,2.3-13.36,3.44-20.76,3.44s-14.55-1.14-20.75-3.44c-6.21-2.29-11.63-6.1-16.28-11.42-4.65-5.31-8.23-12.26-10.74-20.84-2.5-8.57-3.76-19.27-3.76-32.08s1.25-23.2,3.76-31.9c2.5-8.7,6.08-15.7,10.74-21.02,4.65-5.31,10.08-9.12,16.28-11.42,6.2-2.29,13.12-3.44,20.75-3.44s14.31,1.15,20.76,3.44c6.44,2.3,11.93,6.11,16.46,11.42,4.53,5.32,8.11,12.32,10.74,21.02,2.62,8.7,3.94,19.34,3.94,31.9Zm-75.51,0c0,15.47,1.67,26.77,5.01,33.89,3.34,7.13,9.54,10.69,18.61,10.69s15.57-3.56,18.79-10.69c3.22-7.12,4.83-18.42,4.83-33.89s-1.61-26.76-4.83-33.89c-3.22-7.12-9.48-10.69-18.79-10.69s-15.27,3.57-18.61,10.69c-3.34,7.13-5.01,18.43-5.01,33.89ZM185.43,5.49h20.05c4.53,0,6.8,2.06,6.8,6.16,0,1.69-.48,3.39-1.43,5.07L69.85,250.88h-20.04c-4.78,0-7.16-2.05-7.16-6.16,0-1.45,.59-3.14,1.79-5.07L185.43,5.49Zm69.07,181.23c0,12.81-1.31,23.5-3.94,32.08-2.63,8.58-6.21,15.53-10.74,20.84-4.53,5.32-10.02,9.12-16.46,11.42-6.44,2.29-13.36,3.44-20.75,3.44s-14.56-1.15-20.75-3.44c-6.21-2.29-11.63-6.1-16.28-11.42-4.65-5.31-8.23-12.26-10.73-20.84-2.51-8.57-3.76-19.27-3.76-32.08s1.25-23.2,3.76-31.9c2.5-8.7,6.08-15.7,10.73-21.02,4.65-5.31,10.08-9.12,16.28-11.42,6.2-2.29,13.12-3.44,20.75-3.44s14.31,1.15,20.75,3.44c6.44,2.3,11.93,6.11,16.46,11.42,4.53,5.32,8.11,12.32,10.74,21.02,2.62,8.7,3.94,19.33,3.94,31.9Zm-75.51,0c0,15.47,1.67,26.77,5.01,33.89,3.34,7.13,9.54,10.69,18.61,10.69s15.57-3.56,18.79-10.69c3.22-7.12,4.83-18.42,4.83-33.89s-1.61-26.76-4.83-33.89c-3.22-7.12-9.48-10.69-18.79-10.69s-15.27,3.57-18.61,10.69c-3.34,7.13-5.01,18.43-5.01,33.89Z"/></svg>