<?xml version="1.0" encoding="UTF-8"?><svg id="uuid-e3502db0-47f7-4346-a2fe-81c348ec71fd" xmlns="http://www.w3.org/2000/svg" viewBox="0 0 256 256"><defs><style>.uuid-b3138ef6-f1ed-4024-8f1b-adaa6c67227c{fill:#fff;}</style></defs><path class="uuid-b3138ef6-f1ed-4024-8f1b-adaa6c67227c" d="M152.58,128L250.91,29.67c6.79-6.79,6.79-17.79,0-24.58-6.79-6.79-17.79-6.79-24.58,0l-98.33,98.33L29.67,5.09C22.88-1.7,11.88-1.7,5.09,5.09-1.7,11.88-1.7,22.88,5.09,29.67l98.33,98.33L5.09,226.33c-6.79,6.79-6.79,17.79,0,24.58,6.79,6.79,17.79,6.79,24.58,0l98.33-98.33,98.33,98.33c6.79,6.79,17.79,6.79,24.58,0,6.79-6.79,6.79-17.79,0-24.58l-98.33-98.33Z"/></svg>